# xmcd CD database file
#
# Track frame offsets:
#	150
#	16046
#	35060
#	52177
#	68104
#	85187
#	95997
#	114236
#	126677
#	143153
#	158393
#	176800
#	192014
#	206921
#	223797
#	232710
#	247679
#	263767
#	282777
#	299575
#
# Disc length: 4123 seconds
#
# Revision: 0
# Processed by: cddbd v1.5.2PL0 Copyright (c) Steve Scherf et al.
# Submitted via: CDex 1.51
#
DISCID=27101914
DTITLE=Ulli Bögershausen - Vinyl 81-86
DYEAR=2007
DGENRE=New Age
TTITLE0=Frühling, Sommer, Herbst
TTITLE1=Ganz bestimmt vielleicht
TTITLE2=Herbstallee
TTITLE3=Montpellier
TTITLE4=Rushhour
TTITLE5=On Tour
TTITLE6=So alt wie Nina
TTITLE7=Tagtraum
TTITLE8=20.000 Dominosteine
TTITLE9=Abschied
TTITLE10=Valpolicellaexpress
TTITLE11=Gegen die Zeit
TTITLE12=Ich kann nicht länger warten
TTITLE13=Ein Anflug von Sehnsucht
TTITLE14=Nowhere Man
TTITLE15=Morgen ist alles wieder gut
TTITLE16=Tango
TTITLE17=Zu allein
TTITLE18=Eleanor Rigby
TTITLE19=Geborgenheit
EXTD=YEAR: 2007
EXTT0=
EXTT1=
EXTT2=
EXTT3=
EXTT4=
EXTT5=
EXTT6=
EXTT7=
EXTT8=
EXTT9=
EXTT10=
EXTT11=
EXTT12=
EXTT13=
EXTT14=
EXTT15=
EXTT16=
EXTT17=
EXTT18=
EXTT19=
PLAYORDER=
